<svg xmlns="http://www.w3.org/2000/svg" viewBox="0 0 64 64">
  <defs>
    <linearGradient id="bg" x1="0" y1="0" x2="64" y2="64" gradientUnits="userSpaceOnUse">
      <stop offset="0" stop-color="#0b1f49"></stop>
      <stop offset="1" stop-color="#050a1c"></stop>
    </linearGradient>
    <linearGradient id="m" x1="12" y1="48" x2="52" y2="16" gradientUnits="userSpaceOnUse">
      <stop offset="0" stop-color="#8a92ff"></stop>
      <stop offset="1" stop-color="#5e67d8"></stop>
    </linearGradient>
    <filter id="glow" x="-20%" y="-20%" width="140%" height="140%">
      <feGaussianBlur stdDeviation="0.8"></feGaussianBlur>
    </filter>
  </defs>

  
  <rect width="64" height="64" rx="12" ry="12" fill="url(#bg)"></rect>

  
  <rect x="1.5" y="1.5" width="61" height="61" rx="10.5" ry="10.5" fill="none" stroke="rgba(94,103,216,0.25)" stroke-width="1"></rect>

  
  <circle cx="11" cy="11" r="2.2" fill="#5e67d8">
    
  </circle>

  
  <g fill="url(#m)" filter="url(#glow)">
    <path d="M14 48 L14 18 L20 18 L32 36 L44 18 L50 18 L50 48 L44 48 L44 28 L34 44 L30 44 L20 28 L20 48 Z"></path>
  </g>

  
  <path d="M16 54 L26 54 L32 50 L40 56 L48 52" fill="none" stroke="#5e67d8" stroke-width="1.4" stroke-linecap="round" stroke-linejoin="round" opacity="0.85"></path>

  
  <circle cx="48" cy="52" r="1.6" fill="#fff"></circle>
</svg>